<svg width="13" height="13" viewBox="0 0 13 13" fill="none" xmlns="http://www.w3.org/2000/svg">
<g clip-path="url(#clip0_411_235)">
<path d="M6.50001 0.26001C4.84506 0.26001 3.25789 0.917436 2.08766 2.08766C0.917436 3.25789 0.26001 4.84506 0.26001 6.50001C0.260052 7.31946 0.421497 8.13087 0.735126 8.88793C1.04875 9.64499 1.50843 10.3329 2.08789 10.9123C2.66736 11.4917 3.35528 11.9513 4.11237 12.2648C4.86945 12.5784 5.68089 12.7397 6.50033 12.7397C7.31978 12.7396 8.1312 12.5782 8.88825 12.2646C9.64531 11.9509 10.3332 11.4913 10.9126 10.9118C11.492 10.3323 11.9516 9.64442 12.2651 8.88733C12.5787 8.13024 12.7401 7.31881 12.74 6.49936C12.74 3.05371 9.94566 0.26001 6.50001 0.26001ZM6.50001 11.4394C5.84655 11.4469 5.19811 11.3246 4.59222 11.0797C3.98634 10.8349 3.43506 10.4722 2.97033 10.0128C2.50559 9.55333 2.13663 9.00626 1.88482 8.40322C1.63301 7.80019 1.50335 7.15318 1.50335 6.49968C1.50335 5.84619 1.63301 5.19918 1.88482 4.59615C2.13663 3.99311 2.50559 3.44604 2.97033 2.9866C3.43506 2.52716 3.98634 2.1645 4.59222 1.91963C5.19811 1.67475 5.84655 1.55251 6.50001 1.56001C7.15347 1.55251 7.80191 1.67475 8.4078 1.91963C9.01368 2.1645 9.56495 2.52716 10.0297 2.9866C10.4944 3.44604 10.8634 3.99311 11.1152 4.59615C11.367 5.19918 11.4967 5.84619 11.4967 6.49968C11.4967 7.15318 11.367 7.80019 11.1152 8.40322C10.8634 9.00626 10.4944 9.55333 10.0297 10.0128C9.56495 10.4722 9.01368 10.8349 8.4078 11.0797C7.80191 11.3246 7.15347 11.4469 6.50001 11.4394ZM4.87566 6.33751C5.41386 6.33751 5.85001 5.82856 5.85001 5.20001C5.85001 4.57146 5.41321 4.06251 4.87501 4.06251C4.33681 4.06251 3.90001 4.57146 3.90001 5.20001C3.90001 5.82856 4.33681 6.33751 4.87566 6.33751ZM8.12501 6.33751C8.66386 6.33751 9.10001 5.82856 9.10001 5.20001C9.10001 4.57146 8.66321 4.06251 8.12501 4.06251C7.58681 4.06251 7.15001 4.57211 7.15001 5.20001C7.15001 5.82791 7.58681 6.33751 8.12501 6.33751ZM9.32166 7.36841C9.20694 7.31053 9.07411 7.29989 8.95164 7.33877C8.82916 7.37765 8.72679 7.46296 8.66646 7.57641C8.64436 7.61931 8.10161 8.61186 6.50066 8.61186C4.90751 8.61186 4.36151 7.62841 4.33421 7.57706C4.27577 7.46164 4.17387 7.37417 4.05094 7.33388C3.928 7.2936 3.7941 7.30379 3.67868 7.36223C3.56327 7.42068 3.4758 7.52257 3.43551 7.64551C3.39522 7.76844 3.40542 7.90234 3.46386 8.01776C3.49636 8.08211 4.27506 9.58686 6.50066 9.58686C8.72691 9.58686 9.50431 8.08146 9.53616 8.01711C9.59343 7.90259 9.60302 7.77005 9.56282 7.64848C9.52262 7.52691 9.43591 7.42621 9.32166 7.36841Z" fill="white"/>
</g>
<defs>
<clipPath id="clip0_411_235">
<rect width="13" height="13" fill="white"/>
</clipPath>
</defs>
</svg>
